<svg xmlns="http://www.w3.org/2000/svg" xmlns:xlink="http://www.w3.org/1999/xlink" viewBox="0 0 517.86 515.69"><defs><style>.cls-1{fill:url(#linear-gradient);}.cls-2{fill:url(#linear-gradient-2);}</style><linearGradient id="linear-gradient" x1="-11875.36" y1="6529.25" x2="-11820.89" y2="9073.58" gradientTransform="matrix(0.19, 0, 0, -0.19, 2591.05, 1726.22)" gradientUnits="userSpaceOnUse"><stop offset="0" stop-color="#3c85f6"/><stop offset="1" stop-color="#f50570"/></linearGradient><linearGradient id="linear-gradient-2" x1="-12980.35" y1="6474.58" x2="-12930.75" y2="9124.33" xlink:href="#linear-gradient"/></defs><title>logo</title><g id="Layer_2" data-name="Layer 2"><g id="Layer_1-2" data-name="Layer 1"><path class="cls-1" d="M436.57,249.51h0a8.75,8.75,0,1,0-12.37,12.38h0a8.76,8.76,0,0,0,12.39-12.39ZM396.4,204.38a10.25,10.25,0,0,1-10-2.66h0a9.72,9.72,0,0,1-.85-1l-111.34,51,140.84-.44a15.91,15.91,0,0,1,4.05-6.87c.34-.35.71-.68,1.09-1L396.4,204.38ZM264.65,249.89h0a5.83,5.83,0,0,0-8.24,8.25h0a5.84,5.84,0,0,0,8.26-8.26Zm8.59,6.34L380.88,303.6a10.32,10.32,0,0,1,13.35-2.51l25.41-33.68c-.17-.15-.33-.3-.48-.46h0a15.86,15.86,0,0,1-4.66-11.17l-141.23.44ZM379,307.62,269.31,259.38a10.39,10.39,0,0,1-1.51,1.92h0a8.3,8.3,0,0,1-.76.69l0,0a12.25,12.25,0,0,0,1.25,1.63c1.52,1.68,3,3.23,4.38,4.67s2.88,2.87,4.4,4.27l102,90.86a10.24,10.24,0,0,1,4.2-1.26L386.58,320a10.29,10.29,0,0,1-4.88-2.73h0a10.28,10.28,0,0,1-3-7.29A10.06,10.06,0,0,1,379,307.62ZM366.07,153l-91.53,87-.06.06c-1.19,1.09-2.43,2.27-3.7,3.55h0c-1,1-2,2-3,3.11l0,0h0a10.53,10.53,0,0,1,1.73,2.29l114.14-52.3a10.18,10.18,0,0,1-.26-2.29,10.25,10.25,0,0,1,5.43-9.08L375,152.27a10.2,10.2,0,0,1-5.23,1.43,10.08,10.08,0,0,1-3.66-.67Zm124.32,14.86-49,76.35.24.23v0a15.9,15.9,0,0,1,4.22,15l57.65,22.86a10.09,10.09,0,0,1,1.26-1.51,10.28,10.28,0,0,1,3.65-2.37L492.7,168.32a10.57,10.57,0,0,1-2.32-.44Zm-52.64,73.74,48.77-76-.31-.29h0a9.43,9.43,0,0,1-.73-.83L403.72,192a10,10,0,0,1,.29,2.46,10.29,10.29,0,0,1-3,7.28h0c-.2.2-.41.4-.63.58L424,241.14a16,16,0,0,1,13.74.49ZM323.72,70h0a5.83,5.83,0,0,0-8.24,8.24h0A5.84,5.84,0,0,0,323.74,70Zm-14.17,1.85a10.36,10.36,0,0,1,2.4-4.62L266.51,14.36a10.27,10.27,0,0,1-10.64.52l-18.79,43a15.55,15.55,0,0,1,2.2,1.84v0a15.76,15.76,0,0,1,4.63,10.28l65.64,1.81Zm7.74,12.32a10.13,10.13,0,0,1-5-2.76h0a10.33,10.33,0,0,1-2.79-5.11l-66-1.83A15.52,15.52,0,0,1,242,78.62l68.24,55.69.08-.08a10.34,10.34,0,0,1,5.14-2.79l1.84-47.26Zm12.59-9.48a10.21,10.21,0,0,1-3,6.71h0a10.2,10.2,0,0,1-5.12,2.79l-1.85,47.26a10.23,10.23,0,0,1,5,2.76h0a10.26,10.26,0,0,1,2,2.8H361.6a10.76,10.76,0,0,1,.84-.95,10.31,10.31,0,0,1,7.29-3,10.46,10.46,0,0,1,3.76.7L415.37,68.3a10.18,10.18,0,0,1-1.53-2.45L329.89,74.7ZM319.6,63.83a10.24,10.24,0,0,1,7.28,3h0a10.24,10.24,0,0,1,2.28,3.44l82.74-8.72L270,10.3c-.14.28-.29.55-.44.8l46,53.54a10.34,10.34,0,0,1,4-.81Zm57.57,72.43a10.29,10.29,0,0,1,1.23,12.65l14.78,35.22h.53l26-112.76q-.39-.15-.78-.33l-41.72,65.23Zm-3.32,3h0a5.82,5.82,0,0,0-8.24,0,5.82,5.82,0,0,0,0,8.24h0a5.84,5.84,0,0,0,8.26,0l.22-.23.17-.21a5.85,5.85,0,0,0-.4-7.82Zm13.81,223.55a10.29,10.29,0,0,1,3.67,2.36h0a10.3,10.3,0,0,1,0,14.55h0a10.24,10.24,0,0,1-10.77,2.4l-19.82,25.38a15.92,15.92,0,0,1,2.41,4.42l101.59-20.12a10,10,0,0,1,1-4.16l-69.58-70.29a10.25,10.25,0,0,1-5.06,2.68l-3.4,42.76ZM354.31,411h0a8.75,8.75,0,1,0-12.37,12.37h0A8.76,8.76,0,0,0,354.31,411Zm-85-30.44a12.13,12.13,0,0,1-.89,1h0a10.33,10.33,0,0,1-5.08,2.78l-.61,55.94a10.3,10.3,0,0,1,5.72,2.9h0a10.33,10.33,0,0,1,1.43,1.78l63.19-22.61a16,16,0,0,1,.14-10.74l-63.9-31.07Zm88.8,100.9a10.64,10.64,0,0,1,1.5-1.9,10.45,10.45,0,0,1,2.51-1.85L350.07,433a15.87,15.87,0,0,1-13.18-4.54h0a15.66,15.66,0,0,1-1.74-2.06L271.4,449.17c0,.42.07.85.07,1.29a11.45,11.45,0,0,1-.07,1.16l86.71,29.81Zm-1.51,5.33a8,8,0,0,1,.06-1.1L270,455.83a10.64,10.64,0,0,1-1.5,1.9h0a10.24,10.24,0,0,1-5.12,2.79l-.28,39.23a10.27,10.27,0,0,1,5,2.76h0a10.33,10.33,0,0,1,2.08,3l86.49-18.74Zm20.16-107h0a9.54,9.54,0,0,1-1.22-1.46H337.82a10.41,10.41,0,0,1-2,2.81h0c-.29.28-.59.55-.9.8l8.84,20a15.93,15.93,0,0,1,13.78,2.47l19.24-24.63Zm11.41-11.41h0a5.83,5.83,0,1,0-8.25,8.24h0a5.84,5.84,0,0,0,8.26-8.26Zm-21.27,108.2a10.31,10.31,0,0,1,6.1,2L466,397c-.14-.26-.27-.54-.4-.81L364,416.3c0,.29,0,.58,0,.87a15.85,15.85,0,0,1-4.66,11.22l0,0a15.73,15.73,0,0,1-5,3.37l12.06,44.74h.48Zm4.13,6.17h0a5.83,5.83,0,1,0-8.24,8.24h0a5.84,5.84,0,0,0,8.26-8.26ZM475,381.73a8.7,8.7,0,0,1,1.26.08l30.26-85a10.94,10.94,0,0,1-1.8-1.44h0a10.27,10.27,0,0,1-3-7.29,9.81,9.81,0,0,1,.13-1.64l-57.67-22.86a15.85,15.85,0,0,1-2.57,3.36h0a15.85,15.85,0,0,1-4.21,3L474,381.78c.34,0,.67,0,1,0Zm-6.56,2.36a10.54,10.54,0,0,1,1.31-.92L433.16,271.35a16.08,16.08,0,0,1-2.79.24,15.75,15.75,0,0,1-7.06-1.66l-25.82,34.22a10.29,10.29,0,0,1,1.14,9.4l69.84,70.55Zm10.69,3.82h0a5.82,5.82,0,0,0-8.24,0,5.82,5.82,0,0,0,0,8.24h0a5.84,5.84,0,0,0,10-4.13,5.86,5.86,0,0,0-1.71-4.13Zm-86.05-82.09h0a5.83,5.83,0,0,0-8.25,8.25h0a5.84,5.84,0,0,0,8.26-8.26Zm123-21.89h0a5.83,5.83,0,0,0-8.25,8.25h0a5.88,5.88,0,0,0,4.14,1.7,5.83,5.83,0,0,0,4.12-10ZM398.06,185.08a10.14,10.14,0,0,1,2.93,2.06h0a7.56,7.56,0,0,1,.71.79l81.77-27.47a10.77,10.77,0,0,1-.28-2.43,10.21,10.21,0,0,1,2.48-6.7L425.94,71.68a12.41,12.41,0,0,1-1.84.32l-26,113.1Zm-.21,5.22h0a5.82,5.82,0,0,0-8.24,0,5.82,5.82,0,0,0,0,8.24h0a5.84,5.84,0,0,0,8.26-8.26Zm99.77-36.39h0a5.83,5.83,0,0,0-8.25,8.25h0a5.84,5.84,0,0,0,10-4.13,5.78,5.78,0,0,0-1.71-4.13ZM427.41,57.59h0a5.82,5.82,0,0,0-8.24,0,5.82,5.82,0,0,0,0,8.24h0a5.84,5.84,0,0,0,8.26-8.26Z"/><path class="cls-2" d="M41.83,383.32l-30.26-85a10.58,10.58,0,0,1-1.27.07,10.27,10.27,0,0,1-7.27-3H3a10.27,10.27,0,0,1,0-14.55H3a10.2,10.2,0,0,1,6.49-3L25.2,167.69a10.21,10.21,0,0,1-3.65-2.36h0a10.28,10.28,0,0,1,0-14.54h0a10.31,10.31,0,0,1,7.29-3,10,10,0,0,1,4.25.92l59.28-79a10.26,10.26,0,0,1,.52-14h0a10.32,10.32,0,0,1,16,1.75L255,5.53a5.82,5.82,0,0,1,9.94-3.82h0a5.82,5.82,0,0,1,1.7,4.13,5.89,5.89,0,0,1-1.49,3.91h0l-.2.21a5.87,5.87,0,0,1-8.26,0h0l-.21-.22L110.36,61.6a9.8,9.8,0,0,1,.09,1.33v.28l109.24,5.18a8.73,8.73,0,0,1,14.52-3.56h0a8.76,8.76,0,0,1-6.19,15c-.26,0-.53,0-.78,0l-18.81,52a10.33,10.33,0,0,1,6.93,7.15l96.63,1a5.85,5.85,0,0,1,9.71-2.43h0a5.87,5.87,0,0,1,0,8.26,5.79,5.79,0,0,1-3.5,1.66l-85.45,84.32a30.15,30.15,0,0,0-3.74,4.61,44.76,44.76,0,0,0-3.29,6,35,35,0,0,0-2.2,6.32,25,25,0,0,0-.71,5.78,26.94,26.94,0,0,0,.64,5.59,51.79,51.79,0,0,0,2.06,7,29.52,29.52,0,0,0,3.83,7,49.46,49.46,0,0,0,6.62,7.33L328.89,368a5.77,5.77,0,0,1,3.75,1.7h0a5.83,5.83,0,0,1-1.52,9.35h-.05a5.77,5.77,0,0,1-2.56.59,5.86,5.86,0,0,1-4.13-1.71h0a5.79,5.79,0,0,1-1.45-2.4l-56.53,1.23a5.4,5.4,0,0,1-1.15,1.64,5.86,5.86,0,0,1-7.95.3L189.51,413a15.84,15.84,0,0,1,.22,7.44l67.21,26,.1-.1a5.82,5.82,0,0,1,8.24,0h0a5.7,5.7,0,0,1,1.35,2.12l0,0v0a5.94,5.94,0,0,1,.33,1.94,5.84,5.84,0,0,1-.31,1.88v0h0a5.69,5.69,0,0,1-1.39,2.22,5.84,5.84,0,0,1-8.26,0h0c-.09-.08-.16-.17-.25-.26L165.6,485.71a10.37,10.37,0,0,1,.06,1.12l90.27,19.69a6.28,6.28,0,0,1,.66-.79,5.83,5.83,0,0,1,8.25,0h0a5.84,5.84,0,0,1-8.26,8.26h0A5.76,5.76,0,0,1,255,510.9l-90.27-19.7a9.93,9.93,0,0,1-2.07,3,10.28,10.28,0,0,1-14.56,0h0a10.28,10.28,0,0,1-1.75-12.23l-93-81.52a10.29,10.29,0,0,1-13.38-1h0a10.27,10.27,0,0,1,0-14.55h0a10.89,10.89,0,0,1,1.8-1.45ZM215.67,142.75a10.31,10.31,0,0,1-2.95,6.05h0a10.41,10.41,0,0,1-2.81,2V364.52a9.9,9.9,0,0,1,2.82,2,10.3,10.3,0,0,1,2.85,5.44H255.8a6,6,0,0,1,1.24-1.81,5.84,5.84,0,0,1,8.24,0h0a5.8,5.8,0,0,1,1.52,2.67l53-1.16L230,287.83a58.4,58.4,0,0,1-7.81-8.69,38.51,38.51,0,0,1-5-9.15,60.51,60.51,0,0,1-2.42-8.2,35.76,35.76,0,0,1-.85-7.44,34.6,34.6,0,0,1,.95-7.83,44,44,0,0,1,2.77-7.94,52.19,52.19,0,0,1,4-7.29,39.36,39.36,0,0,1,4.87-6l82.66-81.58-93.51-1Zm-.14,233.15a10.41,10.41,0,0,1-2.81,5.19h0a10.29,10.29,0,0,1-11.55,2.08l-16.55,22c.28.24.55.5.81.76h0a15.08,15.08,0,0,1,2.33,2.94l65.25-33Zm39.15,74.44-66.44-25.73a16.06,16.06,0,0,1-2.81,3.81,15.91,15.91,0,0,1-13.2,4.54L160.16,477.7a10.15,10.15,0,0,1,2.51,1.84h0a10.64,10.64,0,0,1,1.5,1.9l90.5-31.11Zm-98.82,26.2,12.07-44.73a16,16,0,0,1-5-3.38v0a15.88,15.88,0,0,1-4.66-11.23c0-.29,0-.58,0-.87L56.71,396.19c-.12.28-.25.54-.39.81l93,81.52a10.22,10.22,0,0,1,6.09-2h.47Zm3.66,6.16a5.84,5.84,0,0,0-8.26,8.26h0a5.83,5.83,0,1,0,8.24-8.24h0Zm21.34-79.94,16.74-22.27a9.87,9.87,0,0,1-1.45-2.22H170.91a10.4,10.4,0,0,1-2,2.82h0a10.31,10.31,0,0,1-14.56,0h0a9.72,9.72,0,0,1-1.62-2.11L57.52,390.8c0,.33.06.66.07,1l101.59,20.12a15.89,15.89,0,0,1,3.77-6h0a15.88,15.88,0,0,1,17.91-3.19Zm-.48,8.23A8.76,8.76,0,0,0,168,423.38h0A8.75,8.75,0,0,0,180.37,411ZM201,364.53V150.8a10.47,10.47,0,0,1-2.81-2h0a10.71,10.71,0,0,1-2-2.8H170.91a10.2,10.2,0,0,1-2,2.81h0a10.47,10.47,0,0,1-2.81,2v91.08a10.16,10.16,0,0,1,2.81,2,10.32,10.32,0,0,1,0,14.57h0a10.73,10.73,0,0,1-2.81,2V364.53a10,10,0,0,1,2.81,2,10.35,10.35,0,0,1,2,2.81h25.24a10.71,10.71,0,0,1,2-2.8h0A10.49,10.49,0,0,1,201,364.53Zm8.59,5.15a5.84,5.84,0,0,0-8.24,0h0a5.84,5.84,0,0,0,8.26,8.26h0a5.82,5.82,0,0,0,0-8.24Zm-52.4-5.15V260.44a11.22,11.22,0,0,1-1.53-.91L103,294.76a15.91,15.91,0,0,1-3.23,16.39l56,54.21a10.54,10.54,0,0,1,1.42-.83Zm.16,5.36h0a5.82,5.82,0,0,0-1.51,3.92,6,6,0,0,0,.33,1.95h0v.05l0,0a5.84,5.84,0,0,0,9.6,2.08h0a5.83,5.83,0,1,0-8.24-8.24h0l-.19.2Zm-4.59-1.25L96.23,314a15.85,15.85,0,0,1-12.53,1.66L53.4,383.78a9.26,9.26,0,0,1,1.16,1h0A10.72,10.72,0,0,1,56,386.52l95.39-11.86q0-.42,0-.84a10.2,10.2,0,0,1,1.39-5.17Zm4.43-126.76V150.81a10.26,10.26,0,0,1-2.8-2h0c-.11-.1-.21-.21-.31-.32l-48.52,32.34a10.33,10.33,0,0,1,1.27,12l49.43,49.59c.31-.19.62-.36.93-.52ZM153,245.5l-49.25-49.4a10.07,10.07,0,0,1-4.59,1.81l-7.54,87a15.85,15.85,0,0,1,7.65,4.25,15.37,15.37,0,0,1,1.5,1.73l51.82-34.66a10.3,10.3,0,0,1,.4-10.68ZM165.75,247a5.85,5.85,0,0,0-8.25,0h0a5.84,5.84,0,0,0,8.26,8.26h0a5.85,5.85,0,0,0,0-8.25Zm53.72-174.2-109.61-5.2,47.49,64.52a10.36,10.36,0,0,1,9.09.27L220.23,75A8.79,8.79,0,0,1,219.47,72.84Zm3.41,5.85-53,56.63a9.22,9.22,0,0,1,1.07,1.75h25.24a10.2,10.2,0,0,1,2-2.81h0a10.24,10.24,0,0,1,5.68-2.89Zm-13.33,58.73a5.82,5.82,0,0,0-8.24,0h0a5.84,5.84,0,0,0,8.26,8.26h0a5.82,5.82,0,0,0,0-8.24Zm-55.76-2.56-47.08-64A10.27,10.27,0,0,1,102.34,73L100.27,177.7a11.09,11.09,0,0,1,1.31.41l50.22-33.47a10.35,10.35,0,0,1,2-9.78Zm12,2.56a5.83,5.83,0,0,0-8.25,0h0a5.84,5.84,0,0,0,8.26,8.26h0a5.84,5.84,0,0,0,0-8.24ZM72.17,300.1l-52.29-8.24a10.17,10.17,0,0,1-2.31,3.51h0a9.65,9.65,0,0,1-1.8,1.44l30.25,85a9.07,9.07,0,0,1,1.28-.08,10.53,10.53,0,0,1,2,.2l30.31-68.13a15.56,15.56,0,0,1-2.8-2.24l0,0a15.86,15.86,0,0,1-4.66-11.23v-.25Zm-51.6-12.64,52.29,8.25a15.85,15.85,0,0,1,4-6.58h0a15.86,15.86,0,0,1,10.38-4.64l7.54-87a10.31,10.31,0,0,1-1.84-.79L18.59,282a10.27,10.27,0,0,1,2,5.49ZM97.89,73a10,10,0,0,1-2-.67l-59.28,79a10.26,10.26,0,0,1,2.49,6.71,11.06,11.06,0,0,1-.18,1.92l50.54,21.7a10.87,10.87,0,0,1,1.08-1.26h0a10.2,10.2,0,0,1,5.26-2.81L97.89,73Zm-60.71,91.1a11,11,0,0,1-1.08,1.27h0a10.22,10.22,0,0,1-6.48,3L13.92,278.44a9.73,9.73,0,0,1,1.31.6l74.34-85.23a10.25,10.25,0,0,1-2-6.11,10,10,0,0,1,.18-1.91l-50.54-21.7ZM51.42,387.94a5.84,5.84,0,0,0-8.26,8.26h0a5.83,5.83,0,0,0,8.25-8.25ZM102,183.57a5.86,5.86,0,0,0-4.13-1.71,5.8,5.8,0,0,0-4.11,1.71h0a5.84,5.84,0,0,0,3.56,9.94h.56a5.82,5.82,0,0,0,4.13-1.7h0a5.83,5.83,0,0,0,0-8.25Zm-69-29.63a5.81,5.81,0,0,0-8.23,0h0a5.83,5.83,0,0,0,4.13,10A5.85,5.85,0,0,0,33,162.2h0A5.85,5.85,0,0,0,33,154ZM104.28,58.8a5.84,5.84,0,0,0-8.24,0h0a5.84,5.84,0,0,0,8.26,8.26h0a5.83,5.83,0,0,0,0-8.25ZM14.41,284a5.82,5.82,0,0,0-8.24,0h0a5.84,5.84,0,0,0,8.27,8.26h0a5.85,5.85,0,0,0,0-8.25Zm79.84,10.21a8.73,8.73,0,0,0-12.37,0h0a8.76,8.76,0,0,0,12.38,12.39h0a8.75,8.75,0,0,0,0-12.37Z"/></g></g></svg>